HIERARCHY
ROOT Hips
{
	OFFSET 0.000000 0.000000 0.000000
	CHANNELS 6 Xposition Yposition Zposition Zrotation Yrotation Xrotation 
	JOINT LHipJoint
	{
		OFFSET 0.000000 0.000000 0.000000
		CHANNELS 3 Zrotation Yrotation Xrotation
		JOINT LeftUpLeg
		{
			OFFSET 1.363060 -1.794630 0.839290
			CHANNELS 3 Zrotation Yrotation Xrotation
			JOINT LeftLeg
			{
				OFFSET 2.448110 -6.726130 0.000000
				CHANNELS 3 Zrotation Yrotation Xrotation
				JOINT LeftFoot
				{
					OFFSET 2.562200 -7.039590 0.000000
					CHANNELS 3 Zrotation Yrotation Xrotation
					JOINT LeftToeBase
					{
						OFFSET 0.157640 -0.433110 2.322550
						CHANNELS 3 Zrotation Yrotation Xrotation
						End Site
						{
							OFFSET 0.000000 0.000000 0.000000
						}
					}
				}
			}
		}
	}
	JOINT RHipJoint
	{
		OFFSET 0.000000 0.000000 0.000000
		CHANNELS 3 Zrotation Yrotation Xrotation
		JOINT RightUpLeg
		{
			OFFSET -1.305520 -1.794630 0.839290
			CHANNELS 3 Zrotation Yrotation Xrotation
			JOINT RightLeg
			{
				OFFSET -2.542530 -6.985550 0.000000
				CHANNELS 3 Zrotation Yrotation Xrotation
				JOINT RightFoot
				{
					OFFSET -2.568260 -7.056230 0.000000
					CHANNELS 3 Zrotation Yrotation Xrotation
					JOINT RightToeBase
					{
						OFFSET -0.164730 -0.452590 2.363150
						CHANNELS 3 Zrotation Yrotation Xrotation
						End Site
						{
							OFFSET 0.000000 0.000000 0.000000
						}
					}
				}
			}
		}
	}
	JOINT LowerBack
	{
		OFFSET 0.000000 0.000000 0.000000
		CHANNELS 3 Zrotation Yrotation Xrotation
		JOINT Spine
		{
			OFFSET 0.028270 2.035590 -0.193380
			CHANNELS 3 Zrotation Yrotation Xrotation
			JOINT Spine1
			{
				OFFSET 0.056720 2.048850 -0.042750
				CHANNELS 3 Zrotation Yrotation Xrotation
				JOINT Neck
				{
					OFFSET 0.000000 0.000000 0.000000
					CHANNELS 3 Zrotation Yrotation Xrotation
					JOINT Neck1
					{
						OFFSET -0.054170 1.746240 0.172020
						CHANNELS 3 Zrotation Yrotation Xrotation
						JOINT Head
						{
							OFFSET 0.104070 1.761360 -0.123970
							CHANNELS 3 Zrotation Yrotation Xrotation
							End Site
							{
								OFFSET 0.000000 0.000000 0.000000
							}
						}
					}
				}
				JOINT LeftShoulder
				{
					OFFSET 0.000000 0.000000 0.000000
					CHANNELS 3 Zrotation Yrotation Xrotation
					JOINT LeftArm
					{
						OFFSET 3.362410 1.200890 -0.311210
						CHANNELS 3 Zrotation Yrotation Xrotation
						JOINT LeftForeArm
						{
							OFFSET 4.983000 -0.000000 -0.000000
							CHANNELS 3 Zrotation Yrotation Xrotation
							JOINT LeftHand
							{
								OFFSET 3.483560 -0.000000 -0.000000
								CHANNELS 3 Zrotation Yrotation Xrotation
								JOINT LeftFingerBase
								{
									OFFSET 0.000000 0.000000 0.000000
									CHANNELS 3 Zrotation Yrotation Xrotation
									JOINT LeftHandIndex1
									{
										OFFSET 0.715260 -0.000000 -0.000000
										CHANNELS 3 Zrotation Yrotation Xrotation
										End Site
										{
											OFFSET 0.000000 0.000000 0.000000
										}
									}
								}
								JOINT LThumb
								{
									OFFSET 0.000000 0.000000 0.000000
									CHANNELS 3 Zrotation Yrotation Xrotation
									End Site
									{
										OFFSET 0.000000 0.000000 0.000000
									}
								}
							}
						}
					}
				}
				JOINT RightShoulder
				{
					OFFSET 0.000000 0.000000 0.000000
					CHANNELS 3 Zrotation Yrotation Xrotation
					JOINT RightArm
					{
						OFFSET -3.136600 1.374050 -0.404650
						CHANNELS 3 Zrotation Yrotation Xrotation
						JOINT RightForeArm
						{
							OFFSET -5.241900 -0.000000 -0.000000
							CHANNELS 3 Zrotation Yrotation Xrotation
							JOINT RightHand
							{
								OFFSET -3.444170 -0.000000 -0.000000
								CHANNELS 3 Zrotation Yrotation Xrotation
								JOINT RightFingerBase
								{
									OFFSET 0.000000 0.000000 0.000000
									CHANNELS 3 Zrotation Yrotation Xrotation
									JOINT RightHandIndex1
									{
										OFFSET -0.622530 -0.000000 -0.000000
										CHANNELS 3 Zrotation Yrotation Xrotation
										End Site
										{
											OFFSET 0.000000 0.000000 0.000000
										}
									}
								}
								JOINT RThumb
								{
									OFFSET 0.000000 0.000000 0.000000
									CHANNELS 3 Zrotation Yrotation Xrotation
									End Site
									{
										OFFSET 0.000000 0.000000 0.000000
									}
								}
							}
						}
					}
				}
			}
		}
	}
}
MOTION
Frames: 8
Frame Time: 0.008333
-16.803757 17.424370 -1.738290 -6.544751 75.515270 -0.477609 -6.560560 -4.106420 -0.807134 -9.051903 6.551224 -34.240714 6.474911 16.091903 49.396275 5.487843 -11.434361 2.614404 0.594200 -4.934800 -13.722700 5.637733 3.663509 -1.509279 11.440976 13.462307 -29.983379 -6.169381 -16.279308 50.203856 -1.514424 0.287180 -0.112771 -1.157400 6.830100 -19.213100 -4.125204 -3.944176 23.482758 0.734605 -5.856535 -1.384311 0.737633 -2.941481 -7.730346 2.319770 6.838311 -2.177053 3.516916 8.705031 7.452664 -2.567600 4.494500 -1.014000 -0.019053 -10.380042 1.833027 -43.646372 -41.493603 9.286960 49.633087 -41.769094 -29.038736 -1.000152 -3.373503 -24.700661 20.163346 28.263162 11.888400 -7.125000 0.000000 0.000000 -10.854500 62.286500 -4.590500 5.749576 10.004719 2.007672 74.187204 -4.851919 48.684082 -20.225228 27.892630 -7.136388 3.116905 2.728706 18.387196 -16.884978 -26.942915 9.852500 7.125000 0.000000 0.000000 14.585400 -61.126000 -5.799300 
-16.823427 17.417034 -1.729253 -6.193889 75.620682 -0.126043 -6.552836 -4.131738 -0.834654 -9.110041 6.526578 -34.346634 6.511460 16.116360 49.509837 5.499667 -11.529828 2.578421 0.584600 -4.895500 -13.610600 5.588520 3.674692 -1.531236 11.394976 13.526774 -30.138358 -6.236062 -16.332597 50.398150 -1.483538 0.231867 -0.118674 -1.117500 6.715300 -18.874700 -4.256651 -3.918927 23.662195 0.718590 -5.864775 -1.370853 0.733147 -2.939258 -7.755018 2.305622 6.844173 -2.188491 3.546061 8.709588 7.331028 -2.551000 4.484600 -1.080900 -0.002853 -10.415226 1.803376 -43.536873 -41.679127 9.184818 49.817152 -41.797802 -29.191877 -0.990877 -3.373587 -24.576121 20.034009 28.342589 11.837400 -7.125000 0.000000 0.000000 -11.081800 62.340600 -4.702000 5.700053 10.022437 2.023961 74.271350 -4.738188 48.977377 -20.621014 28.282685 -7.363500 3.116353 2.736577 18.144805 -17.153473 -27.126197 10.058000 7.125000 0.000000 0.000000 14.398700 -61.366800 -5.805600 
-16.850327 17.400341 -1.719258 -6.346671 75.576109 -0.237006 -6.462581 -4.147603 -0.885734 -9.093401 6.610348 -34.577157 6.595172 16.161348 49.727386 5.531867 -11.732022 2.621091 0.542100 -4.717300 -13.103900 5.545151 3.696253 -1.558363 11.478456 13.755150 -30.377270 -6.333037 -16.412077 50.702034 -1.472432 0.247680 -0.147233 -1.062100 6.552400 -18.395800 -4.290396 -3.852155 23.843470 0.697273 -5.792862 -1.349834 0.659573 -2.904642 -7.737505 2.372398 6.814209 -2.339257 3.547991 8.680979 7.246647 -2.551600 4.461400 -1.083900 0.021063 -10.457236 1.742422 -43.269925 -41.912465 9.037624 49.970686 -41.810887 -29.320148 -0.983444 -3.389605 -24.517476 19.948453 28.534649 11.857500 -7.125000 0.000000 0.000000 -11.329300 62.528100 -4.858500 5.655082 10.068008 2.045696 74.399327 -4.533610 49.220277 -20.995076 28.633340 -7.574030 3.124823 2.685340 18.017610 -17.629740 -26.975921 10.277000 7.125000 0.000000 0.000000 13.686500 -61.289700 -5.487100 
-16.880098 17.379395 -1.706074 -6.504819 75.531133 -0.372390 -6.364906 -4.162487 -0.938278 -9.065102 6.706103 -34.814746 6.674636 16.202686 49.935995 5.579162 -12.015397 2.756724 0.462000 -4.360200 -12.092200 5.500311 3.716596 -1.584670 11.577909 14.005783 -30.620946 -6.442123 -16.499425 51.044274 -1.467090 0.280933 -0.184444 -1.013300 6.404600 -17.963000 -4.356694 -3.775554 24.077855 0.674711 -5.719172 -1.327118 0.608532 -2.866401 -7.738400 2.397321 6.796252 -2.481949 3.592951 8.657762 7.147697 -2.518200 4.440100 -1.102500 0.042797 -10.507531 1.678837 -42.982778 -42.148941 8.918332 50.137721 -41.829595 -29.458701 -0.984257 -3.403001 -24.592461 20.053317 28.657296 11.966100 -7.125000 0.000000 0.000000 -11.285200 62.684500 -4.880900 5.601034 10.108581 2.065804 74.563849 -4.371947 49.429901 -21.409437 29.027563 -7.818689 3.151656 2.656076 17.899396 -18.197331 -27.069400 10.631900 7.125000 0.000000 0.000000 13.044200 -61.498200 -5.289000 
-16.908805 17.359938 -1.689700 -6.232858 75.692971 -0.227181 -6.332534 -4.172440 -0.968330 -9.073392 6.653682 -34.882148 6.767442 16.261491 50.209259 5.610611 -12.253818 2.745493 0.418100 -4.150200 -11.499500 5.442058 3.721349 -1.604964 11.618416 14.013972 -30.778567 -6.572499 -16.591609 51.441602 -1.475883 0.333910 -0.240917 -0.968000 6.263900 -17.552100 -4.544388 -3.763548 24.483775 0.656078 -5.764655 -1.286723 0.647417 -2.876518 -7.743343 2.370027 6.798729 -2.606723 3.647598 8.658193 7.001287 -2.476800 4.426400 -1.155000 0.051168 -10.562100 1.628425 -42.698876 -42.334368 8.684566 50.323121 -41.859552 -29.625138 -0.977319 -3.403705 -24.554466 20.024403 28.664209 11.949700 -7.125000 0.000000 0.000000 -11.337500 62.688900 -4.905000 5.553469 10.142886 2.093768 74.699401 -4.143153 49.697904 -21.785290 29.371373 -8.039220 3.165725 2.647433 17.724883 -18.598471 -27.211263 10.908800 7.125000 0.000000 0.000000 12.646000 -61.726100 -5.192900 
-16.939745 17.336015 -1.671306 -5.660884 75.941823 0.156184 -6.326973 -4.185909 -0.996356 -9.116887 6.525649 -34.901939 6.882627 16.338929 50.558401 5.625422 -12.448026 2.616864 0.411000 -4.115300 -11.401200 5.367848 3.722308 -1.627763 11.631404 13.907758 -30.934574 -6.724846 -16.695432 51.899416 -1.405195 0.201052 -0.240045 -1.004700 6.378100 -17.885400 -4.811334 -3.777154 24.949052 0.636221 -5.862800 -1.231074 0.722015 -2.908641 -7.702123 2.335482 6.799856 -2.782647 3.683159 8.663777 6.840333 -2.446100 4.413900 -1.203300 0.052136 -10.612665 1.580104 -42.379783 -42.483367 8.387614 50.531980 -41.907448 -29.820389 -0.965732 -3.392321 -24.504710 19.962674 28.524616 11.858400 -7.125000 0.000000 0.000000 -11.333500 62.532300 -4.861500 5.514466 10.178692 2.129324 74.797111 -3.832854 50.020938 -22.109252 29.651071 -8.222449 3.169179 2.610487 17.590764 -18.969027 -27.098493 11.078600 7.125000 0.000000 0.000000 12.093600 -61.669400 -4.946100 
-16.977278 17.302097 -1.652274 -5.510330 76.091656 0.121187 -6.261955 -4.190628 -1.037672 -9.095139 6.473904 -35.003746 7.032455 16.429023 50.980081 5.636128 -12.646514 2.517527 0.419700 -4.158100 -11.521800 5.303368 3.724436 -1.644748 11.774894 13.878239 -31.141348 -6.896978 -16.814207 52.428821 -1.247409 -0.130089 -0.272385 -1.172900 6.874300 -19.343600 -4.976333 -3.754992 25.483055 0.619907 -5.900792 -1.187295 0.774861 -2.910124 -7.759872 2.251507 6.828846 -2.830052 3.744495 8.695621 6.615457 -2.396400 4.409400 -1.320400 0.052146 -10.675470 1.541701 -42.091294 -42.607224 8.165618 50.768028 -41.969672 -30.039421 -0.950119 -3.384528 -24.507370 19.900273 28.425344 11.781400 -7.125000 0.000000 0.000000 -11.359700 62.417700 -4.842200 5.471285 10.201298 2.164035 74.844265 -3.618551 50.443996 -22.487307 29.991811 -8.443530 3.171767 2.593403 17.441188 -19.299761 -27.136246 11.276700 7.125000 0.000000 0.000000 11.706100 -61.767500 -4.812300 
-17.020020 17.257867 -1.634518 -6.127250 76.193765 -0.659769 -6.119252 -4.181868 -1.101545 -8.954291 6.467418 -35.184764 7.226224 16.536985 51.492481 5.631867 -12.809756 2.438194 0.453300 -4.319100 -11.976200 5.251631 3.734547 -1.654780 12.105027 13.839779 -31.431152 -7.076839 -16.939367 53.004232 -1.112601 -0.393362 -0.305744 -1.369200 7.405600 -20.922600 -4.946739 -3.751886 26.062624 0.613037 -5.920093 -1.148552 0.791093 -2.903778 -7.869269 2.122309 6.894953 -2.828204 3.843978 8.768143 6.360349 -2.313100 4.423600 -1.470800 0.046991 -10.755196 1.500900 -41.736497 -42.699996 7.888971 50.952699 -42.018881 -30.217530 -0.928020 -3.381210 -24.547223 19.757809 28.319081 11.657600 -7.125000 0.000000 0.000000 -11.480800 62.281900 -4.857800 5.430260 10.223193 2.203824 74.838626 -3.377029 50.985055 -22.857590 30.323761 -8.660165 3.162173 2.610940 17.335613 -19.369557 -27.379063 11.393400 7.125000 0.000000 0.000000 11.804700 -62.031800 -4.927200 
